<svg xmlns="http://www.w3.org/2000/svg" xmlns:xlink="http://www.w3.org/1999/xlink" version="1.1" x="0px" y="0px" width="2240px" height="1410px" viewBox="0 0 2240 1410" enable-background="new 0 0 2240 1410" xml:space="preserve"><style>.style0{fill:	#4D505B;}</style><path d="M1165 1010h-160c13.75 0 25-11.25 25-25s-11.25-25-25-25H375c-13.75 0-25 11.25-25 25s11.25 25 25 25h-40 c-41.25 0-75 33.75-75 75s33.75 75 75 75h330.855c13.28 0 24.1 10.9 24.1 24.145v1.71c0 13.28-10.865 24.145-24.145 24.145H75 c-41.25 0-75 33.75-75 75s33.75 75 75 75h160c-13.75 0-25 11.25-25 25s11.25 25 25 25h470c13.75 0 25-11.25 25-25s-11.25-25-25-25 h160c41.25 0 75-33.75 75-75s-33.75-75-75-75h-50.855c-13.28 0-24.145-10.865-24.145-24.145v-1.71 c0-13.28 10.865-24.145 24.145-24.145H1165c41.25 0 75-33.75 75-75S1206.25 1010 1165 1010z M2190 650h-805c13.75 0 25-11.25 25-25 s-11.25-25-25-25h-260.855c-13.28 0-24.145-10.865-24.145-24.145v-1.71c0-13.28 10.865-24.145 24.145-24.145H1625 c41.25 0 75-33.75 75-75s-33.75-75-75-75h-290.855c-13.28 0-24.145-10.865-24.145-24.145v-1.71c0-13.28 10.865-24.145 24.145-24.145 H1900c96.25 0 175-78.75 175-175S1996.25 0 1900 0H850c-96.25 0-175 78.75-175 175s78.75 175 175 175h65.855 c13.28 0 24.1 10.9 24.1 24.145v1.71c0 13.28-10.865 24.145-24.145 24.145H535c-41.25 0-75 33.75-75 75s33.75 75 75 75 h440.855c13.28 0 24.1 10.9 24.1 24.145v1.71c0 13.28-10.865 24.145-24.145 24.145H835c-41.25 0-75 33.75-75 75 s33.75 75 75 75h230c-13.75 0-25 11.25-25 25s11.25 25 25 25h1015c13.75 0 25-11.25 25-25s-11.25-25-25-25h110c27.5 0 50-22.5 50-50 S2217.5 650 2190 650z" class="style0"/></svg>