<svg xmlns="http://www.w3.org/2000/svg" xmlns:xlink="http://www.w3.org/1999/xlink" version="1.1" x="0px" y="0px" width="180px" height="536px" viewBox="0 0 180 536" enable-background="new 0 0 180 536" xml:space="preserve"><style>.style0{fill:	#02465A;}.style1{fill:	#CCDEE3;}.style10{fill:	#765550;}.style11{fill:	#43302D;}.style2{fill:	#025A74;}.style3{fill:	#FFE1D2;}.style4{fill:	#CF4858;}.style5{fill:	#5B4C41;}.style6{fill:	#42372F;}.style7{fill:	#357B90;}.style8{fill:	#FFFFFF;}.style9{fill:	#D9BFB3;}</style><polygon points="36,508 22,518 22,536 90,536 90,508" class="style0"/><path d="M22 526v-8H12c-6.627 0-12 5.372-12 12v6h22h68v-10H22z" class="style1"/><polygon points="108,104 68,104 36,124 156,124" class="style2"/><path d="M20 186v166c0 2.2 1.8 4 4 4s4-1.791 4-4v-12c0-0.552 0.448-1 1-1s1 0.4 1 1v24c0 2.2 1.8 4 4 4 s4-1.791 4-4v-24c0-0.552 0.448-1 1-1s1 0.4 1 1v30c0 2.2 1.8 4 4 4s4-1.791 4-4v-30c0-0.552 0.448-1 1-1s1 0.4 1 1v26 c0 2.2 1.8 4 4 4s4-1.791 4-4v-30v-8c0-0.552 0.448-1 1-1s1 0.4 1 1v12c0 4.4 3.6 8 8 8V186H20z" class="style3"/><path d="M44 124c-13.255 0-24 10.745-24 24v40h48v-40C68 134.7 57.3 124 44 124z" class="style0"/><rect x="36" y="124" width="120" height="180" class="style4"/><polygon points="36,304 36,508 90,508 90,344 102,344 102,508 156,508 156,304" class="style5"/><rect x="102" y="492" width="54" height="16" class="style6"/><rect x="36" y="492" width="54" height="16" class="style6"/><rect x="116" y="124" width="40" height="200" class="style2"/><rect x="36" y="124" width="16" height="200" class="style2"/><path d="M132 186v138v24c4.418 0 8-3.582 8-8v-12c0-0.552 0.448-1 1-1s1 0.4 1 1v8v30c0 2.2 1.8 4 4 4 s4-1.791 4-4v-26c0-0.552 0.448-1 1-1s1 0.4 1 1v30c0 2.2 1.8 4 4 4s4-1.791 4-4v-30c0-0.552 0.448-1 1-1s1 0.4 1 1v24 c0 2.2 1.8 4 4 4s4-1.791 4-4v-24c0-0.552 0.448-1 1-1s1 0.4 1 1v12c0 2.2 1.8 4 4 4s4-1.791 4-4v-16v-12V186H132z" class="style3"/><path d="M156 124c-13.255 0-24 10.745-24 24v40h48v-40C180 134.7 169.3 124 156 124z" class="style7"/><polygon points="102,508 88,518 88,536 156,536 156,508" class="style2"/><path d="M88 526v-8H78c-6.627 0-12 5.372-12 12v6h22h68v-10H88z" class="style8"/><path d="M76 0C53.909 0 36 17.9 36 40v40h8v28h24v16h48v-16V40C116 17.9 98.1 0 76 0z" class="style3"/><path d="M68 54c0 0-5.373 6-12 6s-12-6-12-6s5.373-6 12-6S68 54 68 54z" class="style8"/><polygon points="84,54 84,80 44,80 44,108 84,108 92,108 92,80 92,54" class="style9"/><path d="M63.189 50.18c-1.236-0.727-2.653-1.376-4.193-1.773C58.036 48.2 57 48 56 48 s-2.036 0.159-2.995 0.406c-1.54 0.398-2.958 1.046-4.193 1.773c-0.002 0.074-0.011 0.146-0.011 0.22c0 4 3.2 7.2 7.2 7.2 c3.976 0 7.2-3.224 7.2-7.2C63.2 50.3 63.2 50.3 63.2 50.18z" class="style10"/><path d="M56 54c1.988 0 3.6-1.612 3.6-3.6c0-0.738-0.224-1.423-0.604-1.994C58.036 48.2 57 48 56 48 s-2.036 0.159-2.995 0.406C52.624 49 52.4 49.7 52.4 50.4C52.4 52.4 54 54 56 54z" class="style11"/></svg>