<?xml version="1.0" encoding="utf-8"?>
<!-- Generator: Adobe Illustrator 17.0.0, SVG Export Plug-In . SVG Version: 6.00 Build 0)  -->
<!DOCTYPE svg PUBLIC "-//W3C//DTD SVG 1.1//EN" "http://www.w3.org/Graphics/SVG/1.1/DTD/svg11.dtd">
<svg version="1.1" id="Layer_1" xmlns="http://www.w3.org/2000/svg" xmlns:xlink="http://www.w3.org/1999/xlink" x="0px" y="0px"
	 width="640px" height="124px" viewBox="-80 0 640 124" enable-background="new -80 0 640 124" xml:space="preserve">
<g>
	<path fill="#FFE1D2" d="M520,0c-22.091,0-40,17.9-40,40v40h8v28h24v16h48V40C560,17.9,542.1,0,520,0z"/>
	<path fill="#C0A99E" d="M510.987,53c-1.856,1.706-6.074,5-10.987,5s-9.131-3.294-10.987-5c-0.648,0.6-1.013,1-1.013,1s5.373,6,12,6
		s12-6,12-6s-0.365-0.4-1-1H510.987z"/>
	<polygon fill="#D9BFB3" points="528,54 528,80 488,80 488,108 528,108 536,108 536,80 536,54 	"/>
</g>
</svg>
