<?xml version="1.0" encoding="utf-8"?>
<!-- Generator: Adobe Illustrator 17.0.0, SVG Export Plug-In . SVG Version: 6.00 Build 0)  -->
<!DOCTYPE svg PUBLIC "-//W3C//DTD SVG 1.1//EN" "http://www.w3.org/Graphics/SVG/1.1/DTD/svg11.dtd">
<svg version="1.1" id="Layer_1" xmlns="http://www.w3.org/2000/svg" xmlns:xlink="http://www.w3.org/1999/xlink" x="0px" y="0px"
	 width="80px" height="124px" viewBox="0 0 80 124" enable-background="new 0 0 80 124" xml:space="preserve">
<g>
	<path fill="#FFE1D2" d="M40,0C17.909,0,0,17.9,0,40v40h8v28h24v16h48V40C80,17.9,62.1,0,40,0z"/>
	<path fill="#C0A99E" d="M30.987,53c-1.856,1.706-6.074,5-10.987,5s-9.131-3.294-10.987-5C8.365,53.6,8,54,8,54s5.373,6,12,6
		s12-6,12-6s-0.365-0.4-1-1H30.987z"/>
	<polygon fill="#D9BFB3" points="48,54 48,80 8,80 8,108 48,108 56,108 56,80 56,54 	"/>
</g>
</svg>
