<svg xmlns="http://www.w3.org/2000/svg" xmlns:xlink="http://www.w3.org/1999/xlink" version="1.1" x="0px" y="0px" width="80px" height="124px" viewBox="0 0 80 124" enable-background="new 0 0 80 124" xml:space="preserve"><style>.style0{fill:	#FFE1D2;}.style1{fill:	#FFFFFF;}.style2{fill:	#D9BFB3;}.style3{fill:	#765550;}.style4{fill:	#43302D;}</style><g><path d="M40 0C17.909 0 0 17.9 0 40v40h8v28h24v16h48v-16V40C80 17.9 62.1 0 40 0z" class="style0"/><path d="M32 54c0 0-5.373 6-12 6S8 54 8 54s5.373-6 12-6S32 54 32 54z" class="style1"/><polygon points="48,54 48,80 8,80 8,108 48,108 56,108 56,80 56,54" class="style2"/><path d="M27.189 50.18c-1.236-0.727-2.653-1.376-4.193-1.773C22.036 48.2 21 48 20 48 s-2.036 0.159-2.995 0.406c-1.54 0.398-2.958 1.046-4.193 1.773c-0.002 0.074-0.011 0.146-0.011 0.22c0 4 3.2 7.2 7.2 7.2 s7.2-3.224 7.2-7.2C27.2 50.3 27.2 50.3 27.2 50.18z" class="style3"/><path d="M20 54c1.988 0 3.6-1.612 3.6-3.6c0-0.738-0.224-1.423-0.604-1.994C22.036 48.2 21 48 20 48 s-2.036 0.159-2.995 0.406C16.624 49 16.4 49.7 16.4 50.4C16.4 52.4 18 54 20 54z" class="style4"/></g></svg>