<svg xmlns="http://www.w3.org/2000/svg" xmlns:xlink="http://www.w3.org/1999/xlink" version="1.1" x="0px" y="0px" width="1180px" height="960px" viewBox="20 0 1180 960" enable-background="new 20 0 1180 960" xml:space="preserve"><style>.style0{fill:	#257A80;}.style1{stroke-linejoin:	round;stroke:	#42372F;stroke-linecap:	round;stroke-miterlimit:	10;stroke-width:	30;fill:	none;}.style2{fill:	#5B4C41;}.style3{stroke-linejoin:	round;stroke:	#68574A;stroke-linecap:	round;stroke-miterlimit:	10;stroke-width:	20;fill:	none;}.style4{stroke-linejoin:	round;stroke:	#5B4C41;stroke-linecap:	round;stroke-miterlimit:	10;stroke-width:	14;fill:	none;}.style5{fill:	#4D2A0B;}.style6{fill:	#17A89E;}.style7{fill:	#5DC2BB;}.style8{stroke-linejoin:	round;stroke:	#41362F;stroke-linecap:	round;stroke-miterlimit:	10;stroke-width:	40;fill:	none;}.style9{stroke-linejoin:	round;stroke:	#68574A;stroke-linecap:	round;stroke-miterlimit:	10;stroke-width:	30;fill:	none;}</style><circle cx="820" cy="460" r="90" class="style0"/><path d=" M990 630H860c-22 0-40-18-40-40v-70" class="style1"/><rect x="970" y="430" width="40" height="450" class="style2"/><path d=" M1000 670h90c16.5 0 30-13.5 30-30V540" class="style3"/><path d=" M990 780h-70c-11 0-20-9-20-20v-40" class="style4"/><circle cx="990" cy="430" r="20" class="style5"/><circle cx="990" cy="350" r="150" class="style6"/><circle cx="1120" cy="510" r="80" class="style7"/><circle cx="900" cy="690" r="60" class="style6"/><circle cx="450" cy="510" r="150" class="style0"/><path d=" M320 720h80c27.5 0 50-22.5 50-50v-60" class="style8"/><rect x="270" y="360" width="60" height="600" class="style2"/><path d=" M290 600H170c-22 0-40-18-40-40v-90" class="style9"/><circle cx="300" cy="360" r="30" class="style5"/><circle cx="300" cy="220" r="220" class="style6"/><circle cx="130" cy="410" r="110" class="style7"/></svg>